<svg xmlns="http://www.w3.org/2000/svg" xmlns:xlink="http://www.w3.org/1999/xlink" style="vertical-align:-1.005ex" width="8.185ex" height="3.259ex" viewBox="0 -970.7 3524.2 1403.3"><defs><path id="a" stroke-width="1" d="M480-10q0-3 6-14t21-26 34-30 47-24 60-10q18 0 40 4t26 4q10 0 14-8t1-16q-6-15-66-33t-115-18q-45 0-85 12t-68 30-52 42-36 41-23 37l-4 16-18 4q-74 23-131 80-74 74-94 194-3 17-3 67t3 68q21 118 94 191 48 51 117 75t140 25q97 0 174-40 136-66 169-213 11-38 11-107t-11-106q-24-94-85-154-30-31-71-54T493-5l-13-5zm88 352q0 271-131 317l-42 7q-66 0-109-40-54-56-73-187-3-31-3-97t3-96q18-133 73-189 23-20 56-34 15-4 47-4 31 0 48 4 32 15 54 34 77 77 77 285zm-394-1v13q0 39 1 65t8 65 22 77 41 74l3 4q-3 0-25-12t-31-19q-4-2-10-7t-14-12-14-12q-86-86-86-233 0-211 162-292 16-10 16-6l-1 2q-15 21-24 37t-22 56-23 98q-3 30-3 102zm534 0q0 69-19 126t-49 89-52 50-42 24q-14 8-15 8t0-3q32-45 46-92 25-71 25-202v-25q0-52-3-86t-19-86-49-96q-2-4 1-3t14 7q29 16 50 32t46 44 41 72 23 99q2 28 2 42zM391-17h-58q-4 2-7 2-2 0-2-2 0-4 38-51 62-62 144-75 12-1 38-1 25 0 33 1l12 2-14 2q-31 12-66 38t-56 64l-11 18-51 2z"/><path id="d" stroke-width="1" d="M287 628q0 7-57 9-23 0-30 1t-7 9q0 8 4 20t7 15q2 1 199 1 167-1 187-1t40-6q72-17 122-79t51-166q0-156-107-280T444 3l-14-2-194-1H72Q48 0 41 2t-8 9q0 2 3 14 4 16 8 18t23 3q27 0 60 3 14 3 19 12 3 4 72 278t69 289zm416-159q0 38-11 68t-26 47-37 29-39 16-35 7h-43q-17 0-33 1h-43q-44 0-50-10-2-4-73-288T242 52q0-4 11-4t77-1h19q14 0 24-1 126 0 208 82 36 36 59 84t43 127 20 130z"/><path id="c" stroke-width="1" d="M95 178q-6 0-14 8t-9 14 31 30 66 50 38 29q2 2 5 2h1q6 0 14-17t54-117q19-43 31-69l85-185q1 0 104 213t206 429 107 221q6 14 20 14 7 0 12-6t7-12v-6L620 293 385-193q-4-7-19-7-9 0-12 3-2 2-98 212l-96 210-16-11q-15-12-31-24t-18-12z"/><path id="b" stroke-width="1" d="M152 251q0 395 236 599h28q6-6 6-9 0-4-19-25t-46-63-55-104-47-167-19-232q0-126 19-231t46-166 55-104 47-64 19-25q0-3-6-9h-28q-29 24-56 53t-61 83-59 116-42 153-18 195z"/><path id="e" stroke-width="1" d="M305 251q0-396-236-600H56q-13 0-17 2t-4 9q2 5 25 31t48 68 52 103 44 163 17 223-17 223-44 163-52 104-48 67-25 32q0 11 15 11h19q128-107 187-284 49-141 49-315z"/></defs><g fill="currentColor" stroke="currentColor" stroke-width="0" transform="scale(1 -1)"><use xlink:href="#a"/><g transform="translate(945)"><use xlink:href="#b"/><g transform="translate(458)"><use y="17" xlink:href="#c"/><path stroke="none" d="M833 758h828v60H833z"/><use x="833" xlink:href="#d"/></g><use x="2120" y="-1" xlink:href="#e"/></g></g></svg>